<svg viewBox="0 0 60 75" xmlns="http://www.w3.org/2000/svg">
  <path d="m30.499 1.0236l0.97806 0.18854s-0.23568-0.70703-0.23568-0.70703c0.96628 0.4855 1.0994 1.8666 0.5126 2.7103-0.34173 0.49021-0.7306 0.621-0.97335 1.1831-0.47489 1.1018-0.31463 1.5543-0.23568 2.7056 0 0 0.75417 9.7806 0.75417 9.7806 0.05538 0.8838-0.34056 1.4647-0.32877 1.757 0.01767 0.4313 0.50317 0.5727 0.56563 1.0712 0.07424 0.59509-0.78127 1.7805-0.69407 2.3544 0.07424 0.48431 0.52438 0.64692 0.87083 0.90146 0.39005 0.28635 0.77656 0.68229 1.0181 1.1042 0.57388 1.0028 0.39594 2.8364 0.39594 4.0065h1.4141v3.0638l-0.1202 0.872-0.94036 0.18855h-8.1309v-4.1244h1.4141c0-1.1701-0.17794-3.0037 0.39594-4.0065 0.24157-0.42068 0.62808-0.81898 1.0181-1.1042 0.30874-0.22625 0.82016-0.44307 0.92032-0.8508 0.11548-0.469-0.80013-1.8371-0.74121-2.4051 0.05185-0.48904 0.54088-0.63398 0.56445-1.0712 0.01767-0.32524-0.26042-0.54206-0.27221-1.5213l0.21564-3.2995 0.26632-4.0065 0.23568-2.5925c0.0083-0.687 0.21682-1.6144 0-2.2389-0.40065-1.2738-0.9545-1.1713-1.3716-2.0033-0.41597-0.83194-0.1909-2.1765 0.77184-2.4746 0 0-0.35352 0.70703-0.35352 0.70703 1.0523-0.0034 1.1701-0.1143 1.4141-1.1784 0 0 0.67168 0.98984 0.67168 0.98984zm-1.6144 1.9561c0.32524-0.78952 0.2345-0.94978-0.47136-1.4141-0.21329 0.5833 0.03653 1.0228 0.47136 1.4141zm2.1211 0c0.53028-0.469 0.57152-0.72942 0.58919-1.4141-0.83901 0.41715-0.86494 0.55266-0.58919 1.4141zm-1.7676 0.35352h1.4141v-0.23567c-0.69525-0.34173-0.88026-0.38298-1.4141 0.23567zm-4.1244 30.402v34.762l-3.8887 0.35351v-35.116h3.8887zm2.8281 0v34.645h-1.5319v-34.645h1.5319zm2.7103 0v34.645h-1.5319v-34.645h1.5319zm2.7103 0v34.645h-1.5319v-34.645h1.5319zm4.7136 0v35.116l-3.5352-0.35351v-34.762h3.5352zm-30.049 11.548v2.3568h3.8887v23.096l-5.3028 1.5814s-2.5925 0.89321-2.5925 0.89321v-27.928h4.0065zm46.782 0v27.574c-1.057-0.19091-5.7282-2.0516-7.8952-2.3568v-22.861h3.8887v-2.3568h4.0065zm-51.967 2.3568v20.033 5.3028l-0.11666 0.74239-0.82605 0.46311s-1.8854 0.79777-1.8854 0.79777v-27.339h2.8281zm55.973 0v26.867l-2.8281-1.0606v-25.807h2.8281zm-39.005 8.4844v12.962s-3.653 0.61276-3.653 0.61276-2.8281 0.56563-2.8281 0.56563v-14.141h6.4811zm25.689 0v13.905s-4.0065-0.70703-4.0065-0.70703-1.8147-0.35588-1.8147-0.35588l-0.18854-0.94035v-11.902h6.0098z"
        stroke="#fff" fill='#fff' strokeWidth=".027426"></path>
</svg>
